<svg width="17" height="19" viewBox="0 0 17 19" fill="none" xmlns="http://www.w3.org/2000/svg">
<path d="M10.18 2.68001C10.18 3.60785 9.42781 4.36002 8.49997 4.36002C7.57213 4.36002 6.81996 3.60785 6.81996 2.68001C6.81996 1.75217 7.57213 1 8.49997 1C9.42781 1 10.18 1.75217 10.18 2.68001Z" stroke="#777777" stroke-width="1.5"/>
<path d="M10.18 16.1201C10.18 17.0479 9.42781 17.8001 8.49997 17.8001C7.57213 17.8001 6.81996 17.0479 6.81996 16.1201C6.81996 15.1922 7.57213 14.4401 8.49997 14.4401C9.42781 14.4401 10.18 15.1922 10.18 16.1201Z" stroke="#777777" stroke-width="1.5"/>
<path d="M15.1597 7.49495C14.3562 7.95887 13.3287 7.68356 12.8648 6.88003C12.4009 6.07649 12.6762 5.04901 13.4797 4.58509C14.2832 4.12117 15.3107 4.39648 15.7746 5.20002C16.2386 6.00355 15.9633 7.03103 15.1597 7.49495Z" stroke="#777777" stroke-width="1.5"/>
<path d="M3.52029 14.215C2.71676 14.6789 1.68928 14.4036 1.22536 13.6001C0.761437 12.7965 1.03675 11.769 1.84028 11.3051C2.64382 10.8412 3.6713 11.1165 4.13522 11.92C4.59914 12.7236 4.32383 13.7511 3.52029 14.215Z" stroke="#777777" stroke-width="1.5"/>
<path d="M13.4797 14.215C12.6762 13.7511 12.4009 12.7236 12.8648 11.92C13.3287 11.1165 14.3562 10.8412 15.1597 11.3051C15.9633 11.769 16.2386 12.7965 15.7746 13.6001C15.3107 14.4036 14.2832 14.6789 13.4797 14.215Z" stroke="#777777" stroke-width="1.5"/>
<path d="M1.84028 7.49498C1.03675 7.03105 0.761437 6.00358 1.22536 5.20004C1.68928 4.39651 2.71676 4.1212 3.52029 4.58512C4.32383 5.04904 4.59914 6.07652 4.13522 6.88005C3.6713 7.68359 2.64382 7.9589 1.84028 7.49498Z" stroke="#777777" stroke-width="1.5"/>
</svg>
