<svg width="21" height="21" viewBox="0 0 21 21" fill="none" xmlns="http://www.w3.org/2000/svg">
<path d="M8.30762 11.3682L9.70898 11.8125C9.49414 12.5938 9.13607 13.1748 8.63477 13.5557C8.13672 13.9333 7.50358 14.1221 6.73535 14.1221C5.78483 14.1221 5.00358 13.7982 4.3916 13.1504C3.77962 12.4993 3.47363 11.6107 3.47363 10.4844C3.47363 9.29297 3.78125 8.36849 4.39648 7.71094C5.01172 7.05013 5.82064 6.71973 6.82324 6.71973C7.69889 6.71973 8.41016 6.97852 8.95703 7.49609C9.28255 7.80208 9.52669 8.24154 9.68945 8.81445L8.25879 9.15625C8.17415 8.78516 7.99674 8.49219 7.72656 8.27734C7.45964 8.0625 7.13411 7.95508 6.75 7.95508C6.2194 7.95508 5.78809 8.14551 5.45605 8.52637C5.12728 8.90723 4.96289 9.52409 4.96289 10.377C4.96289 11.2819 5.12565 11.9264 5.45117 12.3105C5.77669 12.6947 6.19987 12.8867 6.7207 12.8867C7.10482 12.8867 7.43522 12.7646 7.71191 12.5205C7.98861 12.2764 8.18717 11.8923 8.30762 11.3682ZM15.5342 11.3682L16.9355 11.8125C16.7207 12.5938 16.3626 13.1748 15.8613 13.5557C15.3633 13.9333 14.7301 14.1221 13.9619 14.1221C13.0114 14.1221 12.2301 13.7982 11.6182 13.1504C11.0062 12.4993 10.7002 11.6107 10.7002 10.4844C10.7002 9.29297 11.0078 8.36849 11.623 7.71094C12.2383 7.05013 13.0472 6.71973 14.0498 6.71973C14.9255 6.71973 15.6367 6.97852 16.1836 7.49609C16.5091 7.80208 16.7533 8.24154 16.916 8.81445L15.4854 9.15625C15.4007 8.78516 15.2233 8.49219 14.9531 8.27734C14.6862 8.0625 14.3607 7.95508 13.9766 7.95508C13.446 7.95508 13.0146 8.14551 12.6826 8.52637C12.3538 8.90723 12.1895 9.52409 12.1895 10.377C12.1895 11.2819 12.3522 11.9264 12.6777 12.3105C13.0033 12.6947 13.4264 12.8867 13.9473 12.8867C14.3314 12.8867 14.6618 12.7646 14.9385 12.5205C15.2152 12.2764 15.4137 11.8923 15.5342 11.3682Z" fill="#3F3F3F"/>
<rect x="0.5" y="0.5" width="20" height="20" rx="2.5" stroke="#28303F"/>
</svg>
