<svg width="17" height="19" viewBox="0 0 17 19" fill="none" xmlns="http://www.w3.org/2000/svg">
<path d="M5.16667 5.16667H8.5M5.16667 8.5H11.8333M5.16667 11.8333H11.8333M2.66667 1H14.3333C15.2538 1 16 1.74619 16 2.66667V15.2953C16 16.4496 14.8549 17.2544 13.7688 16.8634L12.4673 16.3949C12.0607 16.2485 11.613 16.2658 11.2189 16.4432L9.18394 17.3589C8.74899 17.5546 8.25101 17.5546 7.81606 17.3589L5.78115 16.4432C5.38699 16.2658 4.93934 16.2485 4.53267 16.3949L3.2312 16.8634C2.1451 17.2544 1 16.4496 1 15.2953V2.66667C1 1.74619 1.74619 1 2.66667 1Z" stroke="#777777" stroke-width="1.5" stroke-linecap="round"/>
</svg>
