<svg width="19" height="19" viewBox="0 0 19 19" fill="none" xmlns="http://www.w3.org/2000/svg">
<path d="M2.10612 4.27288L1.61621 4.17291L2.10612 4.27288ZM0.849115 10.4327L1.33902 10.5327L0.849115 10.4327ZM7.36113 12.61L7.79332 12.8614C7.88446 12.7047 7.88367 12.511 7.79125 12.355C7.69882 12.1991 7.52924 12.1054 7.34804 12.1102L7.36113 12.61ZM6.18175 14.6374L5.74956 14.386L6.18175 14.6374ZM9.25789 18.2289L9.27097 18.7287C9.45616 18.7239 9.62348 18.6171 9.7058 18.4511L9.25789 18.2289ZM12.4722 11.7492L12.0243 11.527L12.0243 11.527L12.4722 11.7492ZM11.9625 2.76133L12.244 2.34806L12.244 2.34806L11.9625 2.76133ZM10.5846 1.82305L10.3032 2.23632L10.3032 2.23632L10.5846 1.82305ZM16.1149 12.8254L14.3665 12.8711L14.3926 13.8708L16.1411 13.825L16.1149 12.8254ZM13.0815 11.5154L12.859 3.01833L11.8593 3.04451L12.0818 11.5416L13.0815 11.5154ZM14.0712 1.59722L15.8197 1.55144L15.7935 0.551781L14.0451 0.597565L14.0712 1.59722ZM17.1046 2.90716L17.3271 11.4042L18.3268 11.3781L18.1043 2.88098L17.1046 2.90716ZM15.8197 1.55144C16.4737 1.53431 17.0836 2.10345 17.1046 2.90716L18.1043 2.88098C18.0707 1.59899 17.0707 0.518337 15.7935 0.551781L15.8197 1.55144ZM12.859 3.01833C12.838 2.21463 13.4172 1.61435 14.0712 1.59722L14.0451 0.597565C12.7679 0.631009 11.8258 1.76252 11.8593 3.04451L12.859 3.01833ZM14.3665 12.8711C13.7124 12.8883 13.1025 12.3191 13.0815 11.5154L12.0818 11.5416C12.1154 12.8236 13.1154 13.9042 14.3926 13.8708L14.3665 12.8711ZM16.1411 13.825C17.4182 13.7916 18.3603 12.6601 18.3268 11.3781L17.3271 11.4042C17.3482 12.2079 16.7689 12.8082 16.1149 12.8254L16.1411 13.825ZM8.61524 0.73975L5.41056 0.823667L5.43674 1.82332L8.64142 1.73941L8.61524 0.73975ZM1.61621 4.17291L0.359213 10.3327L1.33902 10.5327L2.59602 4.37285L1.61621 4.17291ZM2.61986 13.2343L7.37421 13.1098L7.34804 12.1102L2.59368 12.2346L2.61986 13.2343ZM6.92893 12.3586L5.74956 14.386L6.61395 14.8888L7.79332 12.8614L6.92893 12.3586ZM8.1094 18.7592L9.27097 18.7287L9.2448 17.7291L8.08322 17.7595L8.1094 18.7592ZM9.7058 18.4511L12.9201 11.9714L12.0243 11.527L8.80997 18.0067L9.7058 18.4511ZM13.0749 11.2647L12.8722 3.52361L11.8726 3.54979L12.0753 11.2909L13.0749 11.2647ZM12.244 2.34806L10.8661 1.40977L10.3032 2.23632L11.6811 3.17461L12.244 2.34806ZM12.8722 3.52361C12.86 3.05728 12.6328 2.61284 12.244 2.34806L11.6811 3.17461C11.7879 3.2473 11.8683 3.38478 11.8726 3.54979L12.8722 3.52361ZM0.359213 10.3327C0.0601828 11.7981 1.11279 13.2738 2.61986 13.2343L2.59368 12.2346C1.82581 12.2548 1.14871 11.4653 1.33902 10.5327L0.359213 10.3327ZM5.41056 0.823667C3.54921 0.872408 2.00288 2.27809 1.61621 4.17291L2.59602 4.37285C2.89965 2.88496 4.08891 1.85862 5.43674 1.82332L5.41056 0.823667ZM8.64142 1.73941C9.22416 1.72415 9.80229 1.89522 10.3032 2.23632L10.8661 1.40977C10.1965 0.953817 9.41322 0.718854 8.61524 0.73975L8.64142 1.73941ZM5.74956 14.386C5.19186 15.3447 5.24478 16.4457 5.6947 17.2969C6.14525 18.1492 7.01731 18.7878 8.1094 18.7592L8.08322 17.7595C7.42975 17.7766 6.88093 17.4011 6.57879 16.8296C6.27603 16.2568 6.24445 15.524 6.61395 14.8888L5.74956 14.386ZM12.9201 11.9714C13.0288 11.7524 13.0813 11.509 13.0749 11.2647L12.0753 11.2909C12.0775 11.3752 12.0591 11.4568 12.0243 11.527L12.9201 11.9714Z" fill="#3F3F3F"/>
</svg>
