<svg width="25" height="28" viewBox="0 0 25 28" fill="none" xmlns="http://www.w3.org/2000/svg">
<path d="M7.38889 10.37C6.97468 10.37 6.63889 10.7058 6.63889 11.12C6.63889 11.5342 6.97468 11.87 7.38889 11.87V10.37ZM17.6111 11.87C18.0253 11.87 18.3611 11.5342 18.3611 11.12C18.3611 10.7058 18.0253 10.37 17.6111 10.37V11.87ZM7.38889 15.43C6.97468 15.43 6.63889 15.7658 6.63889 16.18C6.63889 16.5942 6.97468 16.93 7.38889 16.93V15.43ZM17.6111 16.93C18.0253 16.93 18.3611 16.5942 18.3611 16.18C18.3611 15.7658 18.0253 15.43 17.6111 15.43V16.93ZM7.38889 20.49C6.97468 20.49 6.63889 20.8258 6.63889 21.24C6.63889 21.6542 6.97468 21.99 7.38889 21.99V20.49ZM12.5 21.99C12.9142 21.99 13.25 21.6542 13.25 21.24C13.25 20.8258 12.9142 20.49 12.5 20.49V21.99ZM7.38889 11.87H17.6111V10.37H7.38889V11.87ZM7.38889 16.93H17.6111V15.43H7.38889V16.93ZM7.38889 21.99H12.5V20.49H7.38889V21.99ZM9.94444 1.75H15.0556V0.25H9.94444V1.75ZM15.0556 5.31H9.94444V6.81H15.0556V5.31ZM9.94444 5.31C8.94014 5.31 8.13889 4.50598 8.13889 3.53H6.63889C6.63889 5.34858 8.12596 6.81 9.94444 6.81V5.31ZM16.8611 3.53C16.8611 4.50598 16.0599 5.31 15.0556 5.31V6.81C16.874 6.81 18.3611 5.34858 18.3611 3.53H16.8611ZM15.0556 1.75C16.0599 1.75 16.8611 2.55402 16.8611 3.53H18.3611C18.3611 1.71142 16.874 0.25 15.0556 0.25V1.75ZM9.94444 0.25C8.12596 0.25 6.63889 1.71142 6.63889 3.53H8.13889C8.13889 2.55402 8.94014 1.75 9.94444 1.75V0.25ZM23.25 8.59V21.24H24.75V8.59H23.25ZM18.8889 25.55H6.11111V27.05H18.8889V25.55ZM1.75 21.24V8.59H0.25V21.24H1.75ZM18.8889 2.78H17.6111V4.28H18.8889V2.78ZM6.11111 4.28H7.38889V2.78H6.11111V4.28ZM1.75 8.59C1.75 6.21674 3.69541 4.28 6.11111 4.28V2.78C2.88123 2.78 0.25 5.37414 0.25 8.59H1.75ZM6.11111 25.55C3.69541 25.55 1.75 23.6133 1.75 21.24H0.25C0.25 24.4559 2.88123 27.05 6.11111 27.05V25.55ZM23.25 21.24C23.25 23.6133 21.3046 25.55 18.8889 25.55V27.05C22.1188 27.05 24.75 24.4559 24.75 21.24H23.25ZM24.75 8.59C24.75 5.37414 22.1188 2.78 18.8889 2.78V4.28C21.3046 4.28 23.25 6.21674 23.25 8.59H24.75Z" fill="#28303F"/>
</svg>
