<svg width="17" height="16" viewBox="0 0 17 16" fill="none" xmlns="http://www.w3.org/2000/svg">
<path d="M7 8.5C6.58579 8.5 6.25 8.83578 6.25 9.25C6.25 9.66421 6.58579 10 7 10V8.5ZM10 10C10.4142 10 10.75 9.66421 10.75 9.25C10.75 8.83578 10.4142 8.5 10 8.5V10ZM2.5 7.75H14.5V6.25H2.5V7.75ZM15.25 8.5V11.5H16.75V8.5H15.25ZM13 13.75H4V15.25H13V13.75ZM1.75 11.5V8.5H0.25V11.5H1.75ZM4 13.75C2.75736 13.75 1.75 12.7426 1.75 11.5H0.25C0.25 13.5711 1.92893 15.25 4 15.25V13.75ZM15.25 11.5C15.25 12.7426 14.2426 13.75 13 13.75V15.25C15.0711 15.25 16.75 13.5711 16.75 11.5H15.25ZM14.5 7.75C14.9142 7.75 15.25 8.08579 15.25 8.5H16.75C16.75 7.25736 15.7426 6.25 14.5 6.25V7.75ZM2.5 6.25C1.25736 6.25 0.25 7.25736 0.25 8.5H1.75C1.75 8.08579 2.08579 7.75 2.5 7.75V6.25ZM4 4.75H13V3.25H4V4.75ZM13.75 5.5V7H15.25V5.5H13.75ZM3.25 7V5.5H1.75V7H3.25ZM13 4.75C13.4142 4.75 13.75 5.08579 13.75 5.5H15.25C15.25 4.25736 14.2426 3.25 13 3.25V4.75ZM4 3.25C2.75736 3.25 1.75 4.25736 1.75 5.5H3.25C3.25 5.08579 3.58579 4.75 4 4.75V3.25ZM5.5 1.75H11.5V0.25H5.5V1.75ZM12.25 2.5V4H13.75V2.5H12.25ZM4.75 4V2.5H3.25V4H4.75ZM11.5 1.75C11.9142 1.75 12.25 2.08579 12.25 2.5H13.75C13.75 1.25736 12.7426 0.25 11.5 0.25V1.75ZM5.5 0.25C4.25736 0.25 3.25 1.25736 3.25 2.5H4.75C4.75 2.08579 5.08579 1.75 5.5 1.75V0.25ZM7 10H10V8.5H7V10Z" fill="#777777"/>
</svg>
