<svg width="23" height="17" viewBox="0 0 23 17" fill="none" xmlns="http://www.w3.org/2000/svg">
<path d="M10.5805 9.24804L10.1536 9.86469V9.86469L10.5805 9.24804ZM12.4195 9.24804L12.8464 9.86469L12.4195 9.24804ZM2.61538 1.75H20.3846V0.25H2.61538V1.75ZM21.25 2.61538V13.9231H22.75V2.61538H21.25ZM20.3846 14.7885H2.61538V16.2885H20.3846V14.7885ZM1.75 13.9231V2.61538H0.25V13.9231H1.75ZM2.61538 14.7885C2.13745 14.7885 1.75 14.401 1.75 13.9231H0.25C0.25 15.2294 1.30902 16.2885 2.61538 16.2885V14.7885ZM21.25 13.9231C21.25 14.401 20.8626 14.7885 20.3846 14.7885V16.2885C21.691 16.2885 22.75 15.2294 22.75 13.9231H21.25ZM20.3846 1.75C20.8626 1.75 21.25 2.13745 21.25 2.61538H22.75C22.75 1.30902 21.691 0.25 20.3846 0.25V1.75ZM2.61538 0.25C1.30902 0.25 0.25 1.30902 0.25 2.61538H1.75C1.75 2.13745 2.13745 1.75 2.61538 1.75V0.25ZM0.573093 3.23203L10.1536 9.86469L11.0074 8.6314L1.42691 1.99874L0.573093 3.23203ZM12.8464 9.86469L22.4269 3.23203L21.5731 1.99874L11.9926 8.6314L12.8464 9.86469ZM10.1536 9.86469C10.9636 10.4255 12.0364 10.4255 12.8464 9.86469L11.9926 8.6314C11.6962 8.83656 11.3038 8.83656 11.0074 8.6314L10.1536 9.86469Z" fill="white"/>
</svg>
