<svg width="42" height="42" viewBox="0 0 42 42" fill="none" xmlns="http://www.w3.org/2000/svg">
<path fill-rule="evenodd" clip-rule="evenodd" d="M41.7385 21.1248C41.7385 9.52953 32.3963 0.128906 20.8658 0.128906C9.34245 0.128906 -0.00695801 9.52953 -0.00695801 21.1248C-0.00695801 31.6049 6.046 40.2907 16.0206 41.8705V27.1941H10.7207V21.1248H16.0206V16.4996C16.0206 11.2381 19.1394 8.32854 23.9065 8.32854C26.187 8.32854 28.5812 8.73602 28.5812 8.73602V13.9046H25.9525C23.3594 13.9046 22.5495 15.5202 22.5495 17.1859V21.1248H28.3396L27.4161 27.1941H22.5566V41.8705C34.9752 41.7847 41.7456 31.6049 41.7456 21.1248H41.7385Z" fill="white"/>
</svg>
