<svg width="48" height="48" viewBox="0 0 48 48" fill="none" xmlns="http://www.w3.org/2000/svg">
<path d="M24 18.3415L23.463 18.8651C23.6042 19.0099 23.7978 19.0915 24 19.0915C24.2022 19.0915 24.3958 19.0099 24.537 18.8651L24 18.3415ZM24.6851 17.639L25.222 18.1626L24.6851 17.639ZM23.315 17.639L23.8519 17.1154L23.8519 17.1154L23.315 17.639ZM15.4539 25.3989L14.8974 25.9017L15.4539 25.3989ZM21.1803 31.7371L20.6237 32.2399L21.1803 31.7371ZM26.8197 31.7371L27.3762 32.2399L26.8197 31.7371ZM32.5461 25.3989L33.1026 25.9017L32.5461 25.3989ZM32.4018 17.639L31.8648 18.1626L32.4018 17.639ZM15.5982 17.639L16.1352 18.1626L15.5982 17.639ZM29 18.389C28.5858 18.389 28.25 18.7248 28.25 19.139C28.25 19.5532 28.5858 19.889 29 19.889V18.389ZM30.25 21.139C30.25 21.5532 30.5858 21.889 31 21.889C31.4142 21.889 31.75 21.5532 31.75 21.139H30.25ZM24.537 18.8651L25.222 18.1626L24.1481 17.1154L23.463 17.8179L24.537 18.8651ZM22.778 18.1626L23.463 18.8651L24.537 17.8179L23.8519 17.1154L22.778 18.1626ZM14.8974 25.9017L20.6237 32.2399L21.7368 31.2343L16.0104 24.8961L14.8974 25.9017ZM27.3762 32.2399L33.1026 25.9017L31.9896 24.8961L26.2632 31.2343L27.3762 32.2399ZM31.8648 18.1626C33.6618 20.0054 33.7178 22.9832 31.9896 24.8961L33.1026 25.9017C35.3607 23.4023 35.2892 19.5258 32.9388 17.1154L31.8648 18.1626ZM32.9388 17.1154C30.5135 14.6282 26.5734 14.6282 24.1481 17.1154L25.222 18.1626C27.0586 16.2791 30.0283 16.2791 31.8648 18.1626L32.9388 17.1154ZM16.1352 18.1626C17.9717 16.2792 20.9414 16.2792 22.778 18.1626L23.8519 17.1154C21.4267 14.6282 17.4865 14.6282 15.0612 17.1154L16.1352 18.1626ZM20.6237 32.2399C22.4428 34.2534 25.5572 34.2534 27.3762 32.2399L26.2632 31.2343C25.0397 32.5886 22.9603 32.5886 21.7368 31.2343L20.6237 32.2399ZM15.0612 17.1154C12.7108 19.5258 12.6393 23.4023 14.8974 25.9017L16.0104 24.8961C14.2822 22.9832 14.3382 20.0054 16.1352 18.1626L15.0612 17.1154ZM29 19.889C29.6903 19.889 30.25 20.4486 30.25 21.139H31.75C31.75 19.6202 30.5188 18.389 29 18.389V19.889Z" fill="#777777"/>
<circle cx="24" cy="24" r="23.5" stroke="#777777"/>
</svg>
