<svg width="28" height="28" viewBox="0 0 28 28" fill="none" xmlns="http://www.w3.org/2000/svg">
<path d="M2.33594 8.58337C1.92172 8.58337 1.58594 8.91916 1.58594 9.33337C1.58594 9.74759 1.92172 10.0834 2.33594 10.0834V8.58337ZM25.6693 10.0834C26.0835 10.0834 26.4193 9.74759 26.4193 9.33337C26.4193 8.91916 26.0835 8.58337 25.6693 8.58337V10.0834ZM1.58594 7.00004V21H3.08594V7.00004H1.58594ZM7.0026 26.4167H21.0026V24.9167H7.0026V26.4167ZM26.4193 21V7.00004H24.9193V21H26.4193ZM21.0026 1.58337H7.0026V3.08337H21.0026V1.58337ZM26.4193 7.00004C26.4193 4.0085 23.9941 1.58337 21.0026 1.58337V3.08337C23.1657 3.08337 24.9193 4.83693 24.9193 7.00004H26.4193ZM21.0026 26.4167C23.9941 26.4167 26.4193 23.9916 26.4193 21H24.9193C24.9193 23.1632 23.1657 24.9167 21.0026 24.9167V26.4167ZM1.58594 21C1.58594 23.9916 4.01106 26.4167 7.0026 26.4167V24.9167C4.83949 24.9167 3.08594 23.1632 3.08594 21H1.58594ZM3.08594 7.00004C3.08594 4.83693 4.83949 3.08337 7.0026 3.08337V1.58337C4.01106 1.58337 1.58594 4.0085 1.58594 7.00004H3.08594ZM2.33594 10.0834H25.6693V8.58337H2.33594V10.0834Z" fill="#28303F"/>
<ellipse cx="21.0026" cy="5.83329" rx="1.16667" ry="1.16667" fill="#28303F"/>
<ellipse cx="16.3307" cy="5.83329" rx="1.16667" ry="1.16667" fill="#28303F"/>
</svg>
