<svg width="37" height="37" viewBox="0 0 37 37" fill="none" xmlns="http://www.w3.org/2000/svg">
<rect width="37" height="37" rx="18.5" fill="white"/>
<g clip-path="url(#clip0_1930_2743)">
<path d="M19 11.6221C21.4045 11.6221 21.6868 11.6328 22.6372 11.6757C23.5161 11.715 23.9913 11.8615 24.3093 11.9865C24.7309 12.1509 25.031 12.3438 25.3454 12.6582C25.6598 12.9726 25.8563 13.2727 26.0171 13.6943C26.1386 14.0123 26.2886 14.4875 26.3279 15.3664C26.3708 16.3168 26.3815 16.599 26.3815 19.0036C26.3815 21.4081 26.3708 21.6904 26.3279 22.6407C26.2886 23.5196 26.1421 23.9948 26.0171 24.3128C25.8527 24.7344 25.6598 25.0345 25.3454 25.3489C25.031 25.6634 24.7309 25.8599 24.3093 26.0206C23.9913 26.1421 23.5161 26.2922 22.6372 26.3315C21.6868 26.3744 21.4045 26.3851 19 26.3851C16.5955 26.3851 16.3132 26.3744 15.3628 26.3315C14.4839 26.2922 14.0087 26.1457 13.6908 26.0206C13.2692 25.8563 12.969 25.6634 12.6546 25.3489C12.3402 25.0345 12.1437 24.7344 11.9829 24.3128C11.8615 23.9948 11.7114 23.5196 11.6721 22.6407C11.6292 21.6904 11.6185 21.4081 11.6185 19.0036C11.6185 16.599 11.6292 16.3168 11.6721 15.3664C11.7114 14.4875 11.8579 14.0123 11.9829 13.6943C12.1473 13.2727 12.3402 12.9726 12.6546 12.6582C12.969 12.3438 13.2692 12.1473 13.6908 11.9865C14.0087 11.865 14.4839 11.715 15.3628 11.6757C16.3132 11.6292 16.5991 11.6221 19 11.6221ZM19 10C16.5562 10 16.2489 10.0107 15.2878 10.0536C14.3303 10.0965 13.6765 10.2501 13.1048 10.4716C12.5117 10.7003 12.0115 11.0111 11.5113 11.5113C11.0111 12.0115 10.7039 12.5153 10.4716 13.1048C10.2501 13.6765 10.0965 14.3303 10.0536 15.2914C10.0107 16.2489 10 16.5562 10 19C10 21.4438 10.0107 21.7511 10.0536 22.7122C10.0965 23.6697 10.2501 24.3235 10.4716 24.8988C10.7003 25.4919 11.0111 25.9921 11.5113 26.4923C12.0115 26.9925 12.5153 27.2997 13.1048 27.532C13.6765 27.7535 14.3303 27.9071 15.2914 27.95C16.2525 27.9929 16.5562 28.0036 19.0036 28.0036C21.451 28.0036 21.7547 27.9929 22.7158 27.95C23.6733 27.9071 24.3271 27.7535 24.9024 27.532C25.4954 27.3033 25.9956 26.9925 26.4958 26.4923C26.996 25.9921 27.3033 25.4883 27.5355 24.8988C27.7571 24.3271 27.9107 23.6733 27.9536 22.7122C27.9964 21.7511 28.0072 21.4474 28.0072 19C28.0072 16.5526 27.9964 16.2489 27.9536 15.2878C27.9107 14.3303 27.7571 13.6765 27.5355 13.1012C27.3069 12.5081 26.996 12.0079 26.4958 11.5077C25.9956 11.0075 25.4919 10.7003 24.9024 10.468C24.3307 10.2465 23.6769 10.0929 22.7158 10.05C21.7511 10.0107 21.4438 10 19 10Z" fill="black"/>
<path d="M19 11.6221C21.4045 11.6221 21.6868 11.6328 22.6372 11.6757C23.5161 11.715 23.9913 11.8615 24.3093 11.9865C24.7309 12.1509 25.031 12.3438 25.3454 12.6582C25.6598 12.9726 25.8563 13.2727 26.0171 13.6943C26.1386 14.0123 26.2886 14.4875 26.3279 15.3664C26.3708 16.3168 26.3815 16.599 26.3815 19.0036C26.3815 21.4081 26.3708 21.6904 26.3279 22.6407C26.2886 23.5196 26.1421 23.9948 26.0171 24.3128C25.8527 24.7344 25.6598 25.0345 25.3454 25.3489C25.031 25.6634 24.7309 25.8599 24.3093 26.0206C23.9913 26.1421 23.5161 26.2922 22.6372 26.3315C21.6868 26.3744 21.4045 26.3851 19 26.3851C16.5955 26.3851 16.3132 26.3744 15.3628 26.3315C14.4839 26.2922 14.0087 26.1457 13.6908 26.0206C13.2692 25.8563 12.969 25.6634 12.6546 25.3489C12.3402 25.0345 12.1437 24.7344 11.9829 24.3128C11.8615 23.9948 11.7114 23.5196 11.6721 22.6407C11.6292 21.6904 11.6185 21.4081 11.6185 19.0036C11.6185 16.599 11.6292 16.3168 11.6721 15.3664C11.7114 14.4875 11.8579 14.0123 11.9829 13.6943C12.1473 13.2727 12.3402 12.9726 12.6546 12.6582C12.969 12.3438 13.2692 12.1473 13.6908 11.9865C14.0087 11.865 14.4839 11.715 15.3628 11.6757C16.3132 11.6292 16.5991 11.6221 19 11.6221Z" fill="black"/>
<path d="M18.9983 14.3804C16.4473 14.3804 14.375 16.449 14.375 19.0036C14.375 21.5582 16.4437 23.6269 18.9983 23.6269C21.5528 23.6269 23.6215 21.5582 23.6215 19.0036C23.6215 16.449 21.5528 14.3804 18.9983 14.3804ZM18.9983 22.0012C17.3405 22.0012 15.9971 20.6579 15.9971 19.0001C15.9971 17.3423 17.3405 15.9989 18.9983 15.9989C20.6561 15.9989 21.9995 17.3423 21.9995 19.0001C21.9995 20.6579 20.6561 22.0012 18.9983 22.0012Z" fill="white"/>
<path d="M23.8056 15.2737C24.4015 15.2737 24.8846 14.7906 24.8846 14.1947C24.8846 13.5988 24.4015 13.1157 23.8056 13.1157C23.2096 13.1157 22.7266 13.5988 22.7266 14.1947C22.7266 14.7906 23.2096 15.2737 23.8056 15.2737Z" fill="white"/>
</g>
<defs>
<clipPath id="clip0_1930_2743">
<rect width="18" height="18" fill="white" transform="translate(10 10)"/>
</clipPath>
</defs>
</svg>
