<svg width="43" height="42" viewBox="0 0 43 42" fill="none" xmlns="http://www.w3.org/2000/svg">
<path fill-rule="evenodd" clip-rule="evenodd" d="M21.5648 0.000488281C33.0881 0.000488281 42.4304 9.40111 42.4304 21.0035C42.4304 32.5988 33.0881 42.0066 21.5648 42.0066C10.0414 42.0066 0.692047 32.606 0.692047 21.0035C0.692047 9.40826 10.0343 0.000488281 21.5648 0.000488281ZM27.2483 15.7349C27.2483 16.414 26.7013 16.9716 26.0193 16.9716C25.3443 16.9716 24.7902 16.4212 24.7902 15.7349C24.7902 15.0558 25.3372 14.4982 26.0193 14.4982C26.6942 14.4982 27.2483 15.0486 27.2483 15.7349ZM21.5648 24.4278C19.6821 24.4278 18.1547 22.8908 18.1547 20.9964C18.1547 19.102 19.6821 17.565 21.5648 17.565C23.4475 17.565 24.9749 19.102 24.9749 20.9964C24.9749 22.8908 23.4475 24.4278 21.5648 24.4278ZM21.5648 15.7135C18.6662 15.7135 16.3146 18.0797 16.3146 20.9964C16.3146 23.9131 18.6662 26.2793 21.5648 26.2793C24.4634 26.2793 26.815 23.9131 26.815 20.9964C26.815 18.0797 24.4634 15.7135 21.5648 15.7135ZM21.5648 10.7093C18.787 10.7093 18.4389 10.7236 17.3519 10.7737C16.2649 10.8237 15.5189 10.9953 14.8724 11.2526C14.1975 11.5171 13.6292 11.8674 13.0608 12.4393C12.4925 13.0112 12.1444 13.5831 11.8815 14.2623C11.6257 14.92 11.4552 15.6634 11.4055 16.7572C11.3558 17.8509 11.3416 18.2012 11.3416 20.9964C11.3416 23.7916 11.3558 24.1419 11.4055 25.2356C11.4552 26.3294 11.6257 27.08 11.8815 27.7305C12.1444 28.4097 12.4925 28.9816 13.0608 29.5535C13.6292 30.1254 14.1975 30.4757 14.8724 30.7402C15.5261 30.9904 16.2649 31.1691 17.3519 31.2191C18.446 31.2692 18.787 31.2835 21.5648 31.2835C24.3426 31.2835 24.6907 31.2692 25.7777 31.2191C26.8647 31.1691 27.6106 30.9975 28.2571 30.7402C28.9321 30.4757 29.5004 30.1254 30.0688 29.5535C30.6371 28.9816 30.9852 28.4097 31.2481 27.7305C31.5039 27.08 31.6744 26.3294 31.7241 25.2356C31.7738 24.1347 31.788 23.7844 31.788 20.9964C31.788 18.2012 31.7738 17.8509 31.7241 16.7572C31.6744 15.6634 31.5039 14.9128 31.2481 14.2623C30.9852 13.5831 30.6371 13.0112 30.0688 12.4393C29.5004 11.8674 28.9321 11.5171 28.2571 11.2526C27.6035 10.9953 26.8647 10.8237 25.7777 10.7737C24.6836 10.7236 24.3426 10.7093 21.5648 10.7093ZM21.5648 12.5609C24.2929 12.5609 24.6197 12.568 25.6996 12.6181C26.6942 12.6609 27.2341 12.8325 27.5964 12.9755C28.0724 13.1614 28.4134 13.383 28.7687 13.7476C29.1239 14.105 29.3512 14.4481 29.5359 14.9271C29.678 15.2917 29.8414 15.835 29.8912 16.8358C29.9409 17.9224 29.948 18.2441 29.948 20.9964C29.948 23.7415 29.9409 24.0704 29.8912 25.157C29.8485 26.1578 29.678 26.7083 29.5359 27.0657C29.3512 27.5447 29.131 27.8878 28.7687 28.2452C28.4134 28.6027 28.0724 28.8314 27.5964 29.0173C27.2341 29.1603 26.6942 29.3247 25.6996 29.3676C24.6197 29.4176 24.3 29.4248 21.5648 29.4248C18.8367 29.4248 18.5099 29.4176 17.43 29.3676C16.4354 29.3247 15.8884 29.1531 15.5332 29.0173C15.0572 28.8314 14.7161 28.6098 14.3609 28.2452C14.0057 27.8878 13.7784 27.5447 13.5937 27.0657C13.4516 26.7011 13.2882 26.1578 13.2384 25.157C13.1887 24.0704 13.1816 23.7487 13.1816 20.9964C13.1816 18.2513 13.1887 17.9224 13.2384 16.8358C13.2882 15.835 13.4516 15.2917 13.5937 14.9271C13.7784 14.4481 13.9986 14.105 14.3609 13.7476C14.7161 13.3901 15.0572 13.1614 15.5332 12.9755C15.8955 12.8325 16.4354 12.6681 17.43 12.6181C18.5099 12.568 18.8296 12.5609 21.5648 12.5609Z" fill="white"/>
</svg>
