<svg width="22" height="22" viewBox="0 0 22 22" fill="none" xmlns="http://www.w3.org/2000/svg">
<path d="M20.25 11C20.25 16.1086 16.1086 20.25 11 20.25V21.75C16.9371 21.75 21.75 16.9371 21.75 11H20.25ZM11 20.25C5.89137 20.25 1.75 16.1086 1.75 11H0.25C0.25 16.9371 5.06294 21.75 11 21.75V20.25ZM1.75 11C1.75 5.89137 5.89137 1.75 11 1.75V0.25C5.06294 0.25 0.25 5.06294 0.25 11H1.75ZM11 1.75C16.1086 1.75 20.25 5.89137 20.25 11H21.75C21.75 5.06294 16.9371 0.25 11 0.25V1.75ZM14.25 11C14.25 13.6904 13.8124 16.0916 13.1321 17.7925C12.7911 18.6451 12.4038 19.2846 12.0121 19.6988C11.6219 20.1114 11.2796 20.25 11 20.25V21.75C11.825 21.75 12.535 21.3289 13.1019 20.7295C13.6673 20.1316 14.1419 19.3067 14.5248 18.3496C15.2921 16.4312 15.75 13.8324 15.75 11H14.25ZM11 20.25C10.7204 20.25 10.3781 20.1114 9.98794 19.6988C9.59624 19.2846 9.20894 18.6451 8.86793 17.7925C8.18757 16.0916 7.75 13.6904 7.75 11H6.25C6.25 13.8324 6.70786 16.4312 7.47522 18.3496C7.85806 19.3067 8.33269 20.1316 8.8981 20.7295C9.46501 21.3289 10.175 21.75 11 21.75V20.25ZM7.75 11C7.75 8.30957 8.18757 5.90837 8.86793 4.20748C9.20894 3.35495 9.59624 2.71536 9.98794 2.30118C10.3781 1.88858 10.7204 1.75 11 1.75V0.25C10.175 0.25 9.46501 0.671064 8.8981 1.27052C8.33269 1.86839 7.85806 2.69327 7.47522 3.65039C6.70786 5.56878 6.25 8.16759 6.25 11H7.75ZM11 1.75C11.2796 1.75 11.6219 1.88858 12.0121 2.30118C12.4038 2.71536 12.7911 3.35495 13.1321 4.20748C13.8124 5.90837 14.25 8.30957 14.25 11H15.75C15.75 8.16759 15.2921 5.56878 14.5248 3.65039C14.1419 2.69327 13.6673 1.86839 13.1019 1.27052C12.535 0.671064 11.825 0.25 11 0.25V1.75ZM11 13.25C8.29054 13.25 5.86654 12.9196 4.14444 12.403C3.27862 12.1432 2.63259 11.8488 2.21975 11.556C1.78743 11.2494 1.75 11.0506 1.75 11H0.25C0.25 11.7778 0.772216 12.3683 1.35195 12.7795C1.95117 13.2045 2.7696 13.5565 3.71342 13.8397C5.61061 14.4088 8.18661 14.75 11 14.75V13.25ZM1.75 11C1.75 10.9494 1.78743 10.7506 2.21975 10.444C2.63259 10.1512 3.27862 9.8568 4.14444 9.59705C5.86654 9.08042 8.29054 8.75 11 8.75V7.25C8.18661 7.25 5.61061 7.59115 3.71342 8.16031C2.7696 8.44346 1.95117 8.79551 1.35195 9.22052C0.772216 9.63171 0.25 10.2222 0.25 11H1.75ZM11 8.75C13.7095 8.75 16.1335 9.08042 17.8556 9.59705C18.7214 9.8568 19.3674 10.1512 19.7803 10.444C20.2126 10.7506 20.25 10.9494 20.25 11H21.75C21.75 10.2222 21.2278 9.63171 20.648 9.22052C20.0488 8.79551 19.2304 8.44346 18.2866 8.16031C16.3894 7.59115 13.8134 7.25 11 7.25V8.75ZM20.25 11C20.25 11.0506 20.2126 11.2494 19.7803 11.556C19.3674 11.8488 18.7214 12.1432 17.8556 12.403C16.1335 12.9196 13.7095 13.25 11 13.25V14.75C13.8134 14.75 16.3894 14.4088 18.2866 13.8397C19.2304 13.5565 20.0488 13.2045 20.648 12.7795C21.2278 12.3683 21.75 11.7778 21.75 11H20.25Z" fill="#28303F"/>
</svg>
