<svg width="19" height="19" viewBox="0 0 19 19" fill="none" xmlns="http://www.w3.org/2000/svg">
<path d="M16.5291 15.1385L17.0162 15.2512L16.5291 15.1385ZM17.9469 9.01368L17.4598 8.90092L17.9469 9.01368ZM11.4941 6.66667L11.0687 6.40403C10.9735 6.55827 10.9692 6.75197 11.0575 6.91026C11.1458 7.06856 11.3129 7.16667 11.4941 7.16667V6.66667ZM12.7262 4.67082L13.1516 4.93346H13.1516L12.7262 4.67082ZM9.74511 1V0.5C9.55986 0.5 9.3898 0.60242 9.30316 0.766158L9.74511 1ZM6.36229 7.39335L6.80424 7.62719V7.62719L6.36229 7.39335ZM6.63649 16.3915L6.34434 16.7973H6.34434L6.63649 16.3915ZM7.98936 17.3655L8.2815 16.9598H8.2815L7.98936 17.3655ZM2.74902 6.22222H4.49804V5.22222H2.74902V6.22222ZM5.74707 7.61111V16.1111H6.74707V7.61111H5.74707ZM4.49804 17.5H2.74902V18.5H4.49804V17.5ZM1.5 16.1111V7.61111H0.5V16.1111H1.5ZM2.74902 17.5C2.09473 17.5 1.5 16.9151 1.5 16.1111H0.5C0.5 17.3935 1.4714 18.5 2.74902 18.5V17.5ZM5.74707 16.1111C5.74707 16.9151 5.15234 17.5 4.49804 17.5V18.5C5.77567 18.5 6.74707 17.3935 6.74707 16.1111H5.74707ZM4.49804 6.22222C5.15234 6.22222 5.74707 6.80713 5.74707 7.61111H6.74707C6.74707 6.32868 5.77567 5.22222 4.49804 5.22222V6.22222ZM2.74902 5.22222C1.4714 5.22222 0.5 6.32868 0.5 7.61111H1.5C1.5 6.80713 2.09473 6.22222 2.74902 6.22222V5.22222ZM9.92972 18.5H13.1355V17.5H9.92972V18.5ZM17.0162 15.2512L18.434 9.12644L17.4598 8.90092L16.042 15.0257L17.0162 15.2512ZM16.2501 6.16667H11.4941V7.16667H16.2501V6.16667ZM11.9196 6.92931L13.1516 4.93346L12.3007 4.40818L11.0687 6.40403L11.9196 6.92931ZM10.9071 0.5H9.74511V1.5H10.9071V0.5ZM9.30316 0.766158L5.92034 7.1595L6.80424 7.62719L10.1871 1.23384L9.30316 0.766158ZM5.74707 7.86192V15.6057H6.74707V7.86192H5.74707ZM6.34434 16.7973L7.69721 17.7713L8.2815 16.9598L6.92863 15.9857L6.34434 16.7973ZM5.74707 15.6057C5.74707 16.0722 5.96256 16.5224 6.34434 16.7973L6.92863 15.9857C6.82384 15.9103 6.74707 15.7707 6.74707 15.6057H5.74707ZM18.434 9.12644C18.7713 7.66941 17.7577 6.16667 16.2501 6.16667V7.16667C17.0183 7.16667 17.6745 7.97361 17.4598 8.90092L18.434 9.12644ZM13.1355 18.5C14.9975 18.5 16.5801 17.1353 17.0162 15.2512L16.042 15.0257C15.6995 16.5051 14.4838 17.5 13.1355 17.5V18.5ZM9.92972 17.5C9.34678 17.5 8.77333 17.3139 8.2815 16.9598L7.69721 17.7713C8.35462 18.2446 9.13147 18.5 9.92972 18.5V17.5ZM13.1516 4.93346C13.7342 3.98967 13.7102 2.88764 13.2827 2.02499C12.8546 1.16115 11.9995 0.5 10.9071 0.5V1.5C11.5608 1.5 12.0996 1.88972 12.3867 2.46901C12.6743 3.0495 12.6867 3.78288 12.3007 4.40818L13.1516 4.93346ZM5.92034 7.1595C5.806 7.3756 5.74707 7.61758 5.74707 7.86192H6.74707C6.74707 7.77755 6.76756 7.6965 6.80424 7.62719L5.92034 7.1595Z" fill="#3F3F3F"/>
</svg>
