<svg width="103" height="22" viewBox="0 0 103 22" fill="none" xmlns="http://www.w3.org/2000/svg">
<path d="M7.86023 2.19023C7.76099 1.93343 7.58986 1.71334 7.3689 1.55831C7.14794 1.40329 6.88727 1.32043 6.62049 1.32043C6.35371 1.32043 6.09304 1.40329 5.87208 1.55831C5.65112 1.71334 5.47999 1.93343 5.38075 2.19023L4.25603 5.03985L4.20491 5.07961L1.24613 5.30493C1.07144 5.31707 0.900776 5.36489 0.743952 5.44564C0.587129 5.52639 0.447234 5.63847 0.332303 5.77544C0.119567 6.02922 0.00166102 6.35371 9.37898e-08 6.68997C-7.32162e-05 6.89236 0.042831 7.09228 0.125665 7.27554C0.208499 7.45879 0.32923 7.62088 0.479283 7.75029L2.74789 9.7384V9.78479L2.05772 12.8001C2.03271 12.9131 2.01985 13.0287 2.01938 13.1447C2.01647 13.3293 2.05078 13.5125 2.12011 13.6825C2.18944 13.8525 2.29226 14.0057 2.42197 14.1321C2.63616 14.3496 2.91496 14.4857 3.2131 14.5181C3.51124 14.5506 3.81122 14.4776 4.06432 14.311L6.62049 12.6874H6.68439L9.17666 14.311C9.43045 14.4768 9.73084 14.5487 10.029 14.515C10.3272 14.4813 10.6056 14.344 10.819 14.1255C10.9487 13.999 11.0515 13.8459 11.1209 13.6759C11.1902 13.5058 11.2245 13.3226 11.2216 13.1381C11.2215 13.0242 11.2086 12.9108 11.1833 12.8001L10.4548 9.79141V9.74502L12.7234 7.75692C12.8609 7.63781 12.9741 7.49133 13.0562 7.32612C13.1383 7.16092 13.1876 6.98033 13.2013 6.79503C13.215 6.60972 13.1928 6.42345 13.1359 6.2472C13.0791 6.07094 12.9888 5.90828 12.8703 5.76882C12.7554 5.63184 12.6155 5.51976 12.4587 5.43901C12.3019 5.35827 12.1312 5.31045 11.9565 5.2983L8.99773 5.07298L8.94661 5.03322L7.82189 2.18361L7.86023 2.19023Z" fill="#353277"/>
<path d="M30.3046 2.19023C30.2053 1.93343 30.0342 1.71334 29.8132 1.55831C29.5923 1.40329 29.3316 1.32043 29.0648 1.32043C28.798 1.32043 28.5374 1.40329 28.3164 1.55831C28.0955 1.71334 27.9243 1.93343 27.8251 2.19023L26.7004 5.03985L26.6492 5.07961L23.6905 5.30493C23.5158 5.31707 23.3451 5.36489 23.1883 5.44564C23.0315 5.52639 22.8916 5.63847 22.7766 5.77544C22.5639 6.02922 22.446 6.35371 22.4443 6.68997C22.4443 6.89236 22.4872 7.09228 22.57 7.27554C22.6528 7.45879 22.7736 7.62088 22.9236 7.75029L25.1922 9.7384V9.78479L24.5021 12.8001C24.477 12.9131 24.4642 13.0287 24.4637 13.1447C24.4608 13.3293 24.4951 13.5125 24.5644 13.6825C24.6338 13.8525 24.7366 14.0057 24.8663 14.1321C25.0805 14.3496 25.3593 14.4857 25.6574 14.5181C25.9556 14.5506 26.2556 14.4776 26.5087 14.311L29.0648 12.6874H29.1287L31.621 14.311C31.8748 14.4768 32.1752 14.5487 32.4733 14.515C32.7715 14.4813 33.0499 14.344 33.2633 14.1255C33.3931 13.999 33.4959 13.8459 33.5652 13.6759C33.6345 13.5058 33.6688 13.3226 33.6659 13.1381C33.6658 13.0242 33.6529 12.9108 33.6276 12.8001L32.8991 9.79141V9.74502L35.1677 7.75692C35.3053 7.63781 35.4184 7.49133 35.5005 7.32612C35.5826 7.16092 35.632 6.98033 35.6457 6.79503C35.6594 6.60972 35.6371 6.42345 35.5803 6.2472C35.5234 6.07094 35.4331 5.90828 35.3147 5.76882C35.1997 5.63184 35.0598 5.51976 34.903 5.43901C34.7462 5.35827 34.5755 5.31045 34.4008 5.2983L31.4421 5.07298L31.3909 5.03322L30.2662 2.18361L30.3046 2.19023Z" fill="#353277"/>
<path d="M52.7548 2.19023C52.6555 1.93343 52.4844 1.71334 52.2634 1.55831C52.0425 1.40329 51.7818 1.32043 51.515 1.32043C51.2482 1.32043 50.9876 1.40329 50.7666 1.55831C50.5457 1.71334 50.3745 1.93343 50.2753 2.19023L49.1506 5.03985L49.0994 5.07961L46.1407 5.30493C45.966 5.31707 45.7953 5.36489 45.6385 5.44564C45.4817 5.52639 45.3418 5.63847 45.2268 5.77544C45.0141 6.02922 44.8962 6.35371 44.8945 6.68997C44.8945 6.89236 44.9374 7.09228 45.0202 7.27554C45.103 7.45879 45.2238 7.62088 45.3738 7.75029L47.6424 9.7384V9.78479L46.9523 12.8001C46.9272 12.9131 46.9144 13.0287 46.9139 13.1447C46.911 13.3293 46.9453 13.5125 47.0146 13.6825C47.084 13.8525 47.1868 14.0057 47.3165 14.1321C47.5307 14.3496 47.8095 14.4857 48.1076 14.5181C48.4058 14.5506 48.7057 14.4776 48.9588 14.311L51.515 12.6874H51.5789L54.0712 14.311C54.325 14.4768 54.6254 14.5487 54.9235 14.515C55.2217 14.4813 55.5001 14.344 55.7135 14.1255C55.8433 13.999 55.9461 13.8459 56.0154 13.6759C56.0847 13.5058 56.119 13.3226 56.1161 13.1381C56.116 13.0242 56.1031 12.9108 56.0778 12.8001L55.3493 9.79141V9.74502L57.6179 7.75692C57.7555 7.63781 57.8686 7.49133 57.9507 7.32612C58.0328 7.16092 58.0822 6.98033 58.0959 6.79503C58.1096 6.60972 58.0873 6.42345 58.0305 6.2472C57.9736 6.07094 57.8833 5.90828 57.7649 5.76882C57.6499 5.63184 57.51 5.51976 57.3532 5.43901C57.1964 5.35827 57.0257 5.31045 56.851 5.2983L53.8923 5.07298L53.8411 5.03322L52.7164 2.18361L52.7548 2.19023Z" fill="#353277"/>
<path d="M75.2079 2.19023C75.1086 1.93343 74.9375 1.71334 74.7166 1.55831C74.4956 1.40329 74.2349 1.32043 73.9681 1.32043C73.7014 1.32043 73.4407 1.40329 73.2197 1.55831C72.9988 1.71334 72.8276 1.93343 72.7284 2.19023L71.6037 5.03985L71.5526 5.07961L68.5938 5.30493C68.4191 5.31707 68.2484 5.36489 68.0916 5.44564C67.9348 5.52639 67.7949 5.63847 67.68 5.77544C67.4672 6.02922 67.3493 6.35371 67.3477 6.68997C67.3476 6.89236 67.3905 7.09228 67.4733 7.27554C67.5562 7.45879 67.6769 7.62088 67.8269 7.75029L70.0955 9.7384V9.78479L69.4054 12.8001C69.3804 12.9131 69.3675 13.0287 69.367 13.1447C69.3641 13.3293 69.3984 13.5125 69.4678 13.6825C69.5371 13.8525 69.6399 14.0057 69.7696 14.1321C69.9838 14.3496 70.2626 14.4857 70.5608 14.5181C70.8589 14.5506 71.1589 14.4776 71.412 14.311L73.9681 12.6874H74.0321L76.5243 14.311C76.7781 14.4768 77.0785 14.5487 77.3767 14.515C77.6748 14.4813 77.9532 14.344 78.1667 14.1255C78.2964 13.999 78.3992 13.8459 78.4685 13.6759C78.5379 13.5058 78.5722 13.3226 78.5693 13.1381C78.5691 13.0242 78.5563 12.9108 78.5309 12.8001L77.8024 9.79141V9.74502L80.071 7.75692C80.2086 7.63781 80.3217 7.49133 80.4038 7.32612C80.4859 7.16092 80.5353 6.98033 80.549 6.79503C80.5627 6.60972 80.5405 6.42345 80.4836 6.2472C80.4268 6.07094 80.3364 5.90828 80.218 5.76882C80.1031 5.63184 79.9632 5.51976 79.8063 5.43901C79.6495 5.35827 79.4789 5.31045 79.3042 5.2983L76.3454 5.07298L76.2943 5.03322L75.1695 2.18361L75.2079 2.19023Z" fill="#353277"/>
<path d="M99.7637 9.90908L100.491 12.9144C100.508 12.9878 100.516 13.063 100.517 13.1386H100.516L100.517 13.1459C100.518 13.2635 100.497 13.3798 100.453 13.4871C100.409 13.5944 100.345 13.6897 100.265 13.7674L100.265 13.7673L100.256 13.7762C100.122 13.9139 99.9492 13.9976 99.7678 14.0181C99.5865 14.0386 99.4025 13.9953 99.245 13.8924L99.2445 13.8921L96.7522 12.2685L96.6278 12.1874H96.4793H96.4154H96.27L96.1473 12.2654L93.5912 13.889L93.5911 13.8889L93.5843 13.8934C93.4272 13.9968 93.2434 14.0408 93.0622 14.0211C92.8808 14.0013 92.7081 13.9183 92.5732 13.7813L92.5732 13.7812L92.5659 13.774C92.4861 13.6963 92.4218 13.601 92.378 13.4937C92.3343 13.3864 92.3124 13.2701 92.3142 13.1526L92.3143 13.1526L92.3143 13.1467C92.3146 13.0669 92.3234 12.9874 92.3405 12.9097C92.3406 12.9092 92.3407 12.9086 92.3408 12.9081L93.0302 9.89635L93.0428 9.84128V9.78479V9.7384V9.51174L92.8723 9.36236L90.6037 7.37426L90.6038 7.37425L90.6008 7.37166C90.5066 7.29047 90.4295 7.1876 90.3762 7.06959C90.323 6.95188 90.295 6.82267 90.2949 6.69129C90.2963 6.4701 90.3741 6.25928 90.5104 6.09665C90.5832 6.00992 90.6709 5.94006 90.7678 5.89018C90.8647 5.84028 90.9693 5.81112 91.0757 5.80372L91.0757 5.80373L91.079 5.80348L94.0378 5.57817L94.1879 5.56673L94.3068 5.47429L94.3579 5.43453L94.4658 5.35059L94.516 5.22341L95.6408 2.3738L95.6408 2.3738L95.6421 2.37047C95.7063 2.20414 95.816 2.06454 95.9542 1.96762L95.6738 1.56804L95.9542 1.96762C96.0921 1.87087 96.2527 1.82043 96.4154 1.82043C96.5781 1.82043 96.7388 1.87087 96.8767 1.96762C96.9483 2.01788 97.0123 2.07963 97.0663 2.15063L97.1517 2.36717L98.2764 5.21678L98.3266 5.34396L98.4346 5.4279L98.4857 5.46766L98.6045 5.5601L98.7547 5.57154L101.713 5.79686L101.713 5.79687L101.717 5.7971C101.823 5.8045 101.928 5.83366 102.025 5.88355C102.122 5.93347 102.209 6.00339 102.282 6.0902L102.282 6.09021L102.284 6.09249C102.36 6.18137 102.418 6.28605 102.455 6.40068C102.492 6.51534 102.507 6.63696 102.498 6.75816C102.489 6.87936 102.456 6.99685 102.403 7.10362C102.35 7.21037 102.278 7.30376 102.191 7.37892L102.191 7.37891L102.189 7.38089L99.9201 9.36899L99.7497 9.51837V9.74502V9.79141V9.85109L99.7637 9.90908ZM97.1391 1.59362L97.1638 1.55831L97.1391 1.59362Z" stroke="#353277"/>
<mask id="mask0_1121_1262" style="mask-type:alpha" maskUnits="userSpaceOnUse" x="83" y="0" width="16" height="22">
<rect x="83.5498" width="14.5258" height="21.1284" fill="white"/>
</mask>
<g mask="url(#mask0_1121_1262)">
<path d="M97.6561 2.19023C97.5569 1.93343 97.3858 1.71334 97.1648 1.55831C96.9438 1.40329 96.6832 1.32043 96.4164 1.32043C96.1496 1.32043 95.8889 1.40329 95.668 1.55831C95.447 1.71334 95.2759 1.93343 95.1766 2.19023L94.0519 5.03985L94.0008 5.07961L91.042 5.30493C90.8673 5.31707 90.6967 5.36489 90.5399 5.44564C90.383 5.52639 90.2431 5.63847 90.1282 5.77544C89.9155 6.02922 89.7976 6.35371 89.7959 6.68997C89.7958 6.89236 89.8387 7.09228 89.9216 7.27554C90.0044 7.45879 90.1251 7.62088 90.2752 7.75029L92.5438 9.7384V9.78479L91.8536 12.8001C91.8286 12.9131 91.8157 13.0287 91.8153 13.1447C91.8124 13.3293 91.8467 13.5125 91.916 13.6825C91.9853 13.8525 92.0882 14.0057 92.2179 14.1321C92.4321 14.3496 92.7109 14.4857 93.009 14.5181C93.3071 14.5506 93.6071 14.4776 93.8602 14.311L96.4164 12.6874H96.4803L98.9726 14.311C99.2263 14.4768 99.5267 14.5487 99.8249 14.515C100.123 14.4813 100.401 14.344 100.615 14.1255C100.745 13.999 100.847 13.8459 100.917 13.6759C100.986 13.5058 101.02 13.3226 101.017 13.1381C101.017 13.0242 101.005 12.9108 100.979 12.8001L100.251 9.79141V9.74502L102.519 7.75692C102.657 7.63781 102.77 7.49133 102.852 7.32612C102.934 7.16092 102.984 6.98033 102.997 6.79503C103.011 6.60972 102.989 6.42345 102.932 6.2472C102.875 6.07094 102.785 5.90828 102.666 5.76882C102.551 5.63184 102.411 5.51976 102.255 5.43901C102.098 5.35827 101.927 5.31045 101.752 5.2983L98.7936 5.07298L98.7425 5.03322L97.6178 2.18361L97.6561 2.19023Z" fill="#353277"/>
</g>
</svg>
