<svg width="36" height="37" viewBox="0 0 36 37" fill="none" xmlns="http://www.w3.org/2000/svg">
<rect width="36" height="37" rx="18" fill="white"/>
<path d="M17.9963 10C13.0206 10 9 14.028 9 18.9963C9 22.8095 11.3694 26.0675 14.7162 27.378C14.6347 26.6672 14.5681 25.5714 14.7458 24.7939C14.9087 24.0905 15.7972 20.3217 15.7972 20.3217C15.7972 20.3217 15.5307 19.7812 15.5307 18.9889C15.5307 17.7376 16.2563 16.8046 17.1596 16.8046C17.9297 16.8046 18.2999 17.3821 18.2999 18.0708C18.2999 18.8408 17.8112 19.9959 17.552 21.0695C17.3373 21.9654 18.0037 22.6985 18.8848 22.6985C20.4842 22.6985 21.7133 21.0103 21.7133 18.5817C21.7133 16.427 20.1658 14.9239 17.9519 14.9239C15.39 14.9239 13.8869 16.8416 13.8869 18.826C13.8869 19.5961 14.183 20.4253 14.5533 20.877C14.6273 20.9659 14.6347 21.0473 14.6125 21.1362C14.5459 21.4175 14.3904 22.0321 14.3608 22.158C14.3237 22.3209 14.2275 22.3579 14.0572 22.2764C12.9465 21.7433 12.2505 20.0995 12.2505 18.7816C12.2505 15.9457 14.3089 13.3394 18.1962 13.3394C21.3135 13.3394 23.7421 15.5607 23.7421 18.5372C23.7421 21.6396 21.7873 24.1349 19.0773 24.1349C18.1666 24.1349 17.3077 23.661 17.0189 23.0983C17.0189 23.0983 16.5673 24.8161 16.4562 25.2382C16.2563 26.023 15.7083 27.0004 15.3381 27.6002C16.1822 27.8593 17.0708 28 18.0037 28C22.972 28 27 23.972 27 19.0037C26.9926 14.028 22.9646 10 17.9963 10Z" fill="black"/>
</svg>
