<svg width="78" height="16" viewBox="0 0 78 16" fill="none" xmlns="http://www.w3.org/2000/svg">
<path d="M5.95235 1.65868C5.8772 1.46421 5.74761 1.29753 5.58028 1.18014C5.41295 1.06274 5.21555 1 5.01353 1C4.8115 1 4.6141 1.06274 4.44678 1.18014C4.27945 1.29753 4.14986 1.46421 4.0747 1.65868L3.22298 3.81662L3.18427 3.84673L0.943666 4.01735C0.811372 4.02655 0.682134 4.06277 0.563376 4.12391C0.444617 4.18506 0.338679 4.26993 0.251644 4.37366C0.0905452 4.56585 0.00125785 4.81157 7.10246e-08 5.06621C-5.54448e-05 5.21948 0.0324348 5.37087 0.0951628 5.50965C0.157891 5.64842 0.249318 5.77117 0.362948 5.86917L2.0809 7.37471V7.40984L1.55826 9.69324C1.53932 9.77885 1.52958 9.86637 1.52922 9.9542C1.52702 10.094 1.553 10.2327 1.6055 10.3615C1.658 10.4902 1.73587 10.6062 1.8341 10.7019C1.9963 10.8667 2.20742 10.9697 2.4332 10.9943C2.65897 11.0189 2.88614 10.9636 3.0778 10.8374L5.01353 9.60792H5.06192L6.94925 10.8374C7.14144 10.963 7.36892 11.0174 7.59471 10.9919C7.8205 10.9664 8.03134 10.8624 8.19295 10.6969C8.29119 10.6012 8.36905 10.4852 8.42155 10.3564C8.47405 10.2277 8.50003 10.089 8.49783 9.94918C8.49773 9.86299 8.48799 9.7771 8.46879 9.69324L7.91711 7.41485V7.37972L9.63507 5.87419C9.73925 5.78399 9.82495 5.67306 9.88711 5.54795C9.94928 5.42285 9.98665 5.2861 9.99703 5.14577C10.0074 5.00544 9.99057 4.86438 9.94752 4.73091C9.90447 4.59744 9.83607 4.47426 9.74637 4.36865C9.65934 4.26492 9.5534 4.18004 9.43464 4.11889C9.31588 4.05775 9.18665 4.02153 9.05435 4.01234L6.81375 3.84171L6.77504 3.8116L5.92332 1.65366L5.95235 1.65868Z" fill="#353277"/>
<path d="M22.9524 1.65868C22.8772 1.46421 22.7476 1.29753 22.5803 1.18014C22.4129 1.06274 22.2156 1 22.0135 1C21.8115 1 21.6141 1.06274 21.4468 1.18014C21.2794 1.29753 21.1499 1.46421 21.0747 1.65868L20.223 3.81662L20.1843 3.84673L17.9437 4.01735C17.8114 4.02655 17.6821 4.06277 17.5634 4.12391C17.4446 4.18506 17.3387 4.26993 17.2516 4.37366C17.0905 4.56585 17.0013 4.81157 17 5.06621C16.9999 5.21948 17.0324 5.37087 17.0952 5.50965C17.1579 5.64842 17.2493 5.77117 17.3629 5.86917L19.0809 7.37471V7.40984L18.5583 9.69324C18.5393 9.77885 18.5296 9.86637 18.5292 9.9542C18.527 10.094 18.553 10.2327 18.6055 10.3615C18.658 10.4902 18.7359 10.6062 18.8341 10.7019C18.9963 10.8667 19.2074 10.9697 19.4332 10.9943C19.659 11.0189 19.8861 10.9636 20.0778 10.8374L22.0135 9.60792H22.0619L23.9493 10.8374C24.1414 10.963 24.3689 11.0174 24.5947 10.9919C24.8205 10.9664 25.0313 10.8624 25.193 10.6969C25.2912 10.6012 25.369 10.4852 25.4215 10.3564C25.474 10.2277 25.5 10.089 25.4978 9.94918C25.4977 9.86299 25.488 9.7771 25.4688 9.69324L24.9171 7.41485V7.37972L26.6351 5.87419C26.7392 5.78399 26.8249 5.67306 26.8871 5.54795C26.9493 5.42285 26.9867 5.2861 26.997 5.14577C27.0074 5.00544 26.9906 4.86438 26.9475 4.73091C26.9045 4.59744 26.8361 4.47426 26.7464 4.36865C26.6593 4.26492 26.5534 4.18004 26.4346 4.11889C26.3159 4.05775 26.1866 4.02153 26.0544 4.01234L23.8138 3.84171L23.775 3.8116L22.9233 1.65366L22.9524 1.65868Z" fill="#353277"/>
<path d="M39.9524 1.65868C39.8772 1.46421 39.7476 1.29753 39.5803 1.18014C39.4129 1.06274 39.2156 1 39.0135 1C38.8115 1 38.6141 1.06274 38.4468 1.18014C38.2794 1.29753 38.1499 1.46421 38.0747 1.65868L37.223 3.81662L37.1843 3.84673L34.9437 4.01735C34.8114 4.02655 34.6821 4.06277 34.5634 4.12391C34.4446 4.18506 34.3387 4.26993 34.2516 4.37366C34.0905 4.56585 34.0013 4.81157 34 5.06621C33.9999 5.21948 34.0324 5.37087 34.0952 5.50965C34.1579 5.64842 34.2493 5.77117 34.3629 5.86917L36.0809 7.37471V7.40984L35.5583 9.69324C35.5393 9.77885 35.5296 9.86637 35.5292 9.9542C35.527 10.094 35.553 10.2327 35.6055 10.3615C35.658 10.4902 35.7359 10.6062 35.8341 10.7019C35.9963 10.8667 36.2074 10.9697 36.4332 10.9943C36.659 11.0189 36.8861 10.9636 37.0778 10.8374L39.0135 9.60792H39.0619L40.9493 10.8374C41.1414 10.963 41.3689 11.0174 41.5947 10.9919C41.8205 10.9664 42.0313 10.8624 42.193 10.6969C42.2912 10.6012 42.369 10.4852 42.4215 10.3564C42.474 10.2277 42.5 10.089 42.4978 9.94918C42.4977 9.86299 42.488 9.7771 42.4688 9.69324L41.9171 7.41485V7.37972L43.6351 5.87419C43.7392 5.78399 43.8249 5.67306 43.8871 5.54795C43.9493 5.42285 43.9867 5.2861 43.997 5.14577C44.0074 5.00544 43.9906 4.86438 43.9475 4.73091C43.9045 4.59744 43.8361 4.47426 43.7464 4.36865C43.6593 4.26492 43.5534 4.18004 43.4346 4.11889C43.3159 4.05775 43.1866 4.02153 43.0544 4.01234L40.8138 3.84171L40.775 3.8116L39.9233 1.65366L39.9524 1.65868Z" fill="#353277"/>
<path d="M56.9524 1.65868C56.8772 1.46421 56.7476 1.29753 56.5803 1.18014C56.4129 1.06274 56.2156 1 56.0135 1C55.8115 1 55.6141 1.06274 55.4468 1.18014C55.2794 1.29753 55.1499 1.46421 55.0747 1.65868L54.223 3.81662L54.1843 3.84673L51.9437 4.01735C51.8114 4.02655 51.6821 4.06277 51.5634 4.12391C51.4446 4.18506 51.3387 4.26993 51.2516 4.37366C51.0905 4.56585 51.0013 4.81157 51 5.06621C50.9999 5.21948 51.0324 5.37087 51.0952 5.50965C51.1579 5.64842 51.2493 5.77117 51.3629 5.86917L53.0809 7.37471V7.40984L52.5583 9.69324C52.5393 9.77885 52.5296 9.86637 52.5292 9.9542C52.527 10.094 52.553 10.2327 52.6055 10.3615C52.658 10.4902 52.7359 10.6062 52.8341 10.7019C52.9963 10.8667 53.2074 10.9697 53.4332 10.9943C53.659 11.0189 53.8861 10.9636 54.0778 10.8374L56.0135 9.60792H56.0619L57.9493 10.8374C58.1414 10.963 58.3689 11.0174 58.5947 10.9919C58.8205 10.9664 59.0313 10.8624 59.193 10.6969C59.2912 10.6012 59.369 10.4852 59.4215 10.3564C59.474 10.2277 59.5 10.089 59.4978 9.94918C59.4977 9.86299 59.488 9.7771 59.4688 9.69324L58.9171 7.41485V7.37972L60.6351 5.87419C60.7392 5.78399 60.8249 5.67306 60.8871 5.54795C60.9493 5.42285 60.9867 5.2861 60.997 5.14577C61.0074 5.00544 60.9906 4.86438 60.9475 4.73091C60.9045 4.59744 60.8361 4.47426 60.7464 4.36865C60.6593 4.26492 60.5534 4.18004 60.4346 4.11889C60.3159 4.05775 60.1866 4.02153 60.0544 4.01234L57.8138 3.84171L57.775 3.8116L56.9233 1.65366L56.9524 1.65868Z" fill="#353277"/>
<path d="M75.982 9.80743L75.4312 7.53252L75.4171 7.47453V7.41485V7.37972V7.15307L75.5876 7.00369L77.3055 5.49815L77.3078 5.49618L77.3078 5.49619C77.3612 5.44994 77.4062 5.3921 77.4393 5.32545C77.4725 5.25878 77.4928 5.18512 77.4984 5.10891C77.504 5.03268 77.4948 4.95627 77.4717 4.88439C77.4485 4.81254 77.412 4.74735 77.3653 4.69232L77.3633 4.69003L77.3633 4.69003C77.3184 4.63647 77.2646 4.59375 77.2058 4.56343C77.1469 4.53314 77.0837 4.51558 77.0197 4.51113L77.0164 4.5109L77.0164 4.51089L74.7758 4.34026L74.6256 4.32883L74.5068 4.23639L74.4681 4.20628L74.3601 4.12234L74.31 3.99516L73.4582 1.83722L73.4 1.68961C73.3687 1.65094 73.3327 1.61724 73.2931 1.58945C73.2088 1.53033 73.1115 1.5 73.0135 1.5C72.9156 1.5 72.8182 1.53033 72.7339 1.58945C72.6494 1.64874 72.5813 1.73491 72.5411 1.83892L72.5398 1.84225L72.5398 1.84224L71.6881 4.00018L71.6379 4.12735L71.5299 4.21129L71.4912 4.2414L71.3724 4.33385L71.2222 4.34528L68.9816 4.51591L68.9783 4.51616L68.9783 4.51615C68.9143 4.5206 68.8511 4.53816 68.7923 4.56845C68.7334 4.59873 68.6797 4.64139 68.6348 4.69487L75.982 9.80743ZM75.982 9.80743C75.9924 9.85399 75.9978 9.90175 75.9978 9.94975H75.9978L75.9979 9.95705C75.999 10.0298 75.9855 10.1016 75.9586 10.1677C75.9316 10.2337 75.8923 10.2918 75.844 10.3389L75.8439 10.3388L75.8352 10.3476C75.7526 10.4323 75.6476 10.4827 75.5386 10.4951C75.4297 10.5074 75.3185 10.4814 75.2227 10.4188L75.2222 10.4185L73.3348 9.18898L73.2104 9.10792H73.0619H73.0135H72.8682L72.7454 9.18587L70.8097 10.4154L70.8097 10.4153L70.8029 10.4198C70.7072 10.4828 70.5962 10.5091 70.4874 10.4972C70.3783 10.4853 70.2733 10.4353 70.1904 10.3511L70.1904 10.3511L70.1831 10.3439C70.1348 10.2968 70.0954 10.2387 70.0685 10.1727C70.0416 10.1067 70.028 10.0349 70.0292 9.96207H70.0292L70.0292 9.95623C70.0294 9.90451 70.0351 9.85304 70.0461 9.80279C70.0462 9.80228 70.0463 9.80176 70.0465 9.80125L70.5683 7.5214L70.5809 7.46633V7.40984V7.37471V7.14805L70.4104 6.99867L68.6925 5.49313L68.6925 5.49312L68.6895 5.49053C68.6318 5.44075 68.584 5.37723 68.5508 5.3037C68.5177 5.23046 68.5001 5.14979 68.5 5.06753C68.501 4.92805 68.5501 4.79606 68.6347 4.69505L75.982 9.80743Z" stroke="#353277"/>
<mask id="mask0_685_842" style="mask-type:alpha" maskUnits="userSpaceOnUse" x="61" y="0" width="11" height="16">
<rect x="61" width="11" height="16" fill="white"/>
</mask>
<g mask="url(#mask0_685_842)">
<path d="M73.9524 1.65868C73.8772 1.46421 73.7476 1.29753 73.5803 1.18014C73.4129 1.06274 73.2156 1 73.0135 1C72.8115 1 72.6141 1.06274 72.4468 1.18014C72.2794 1.29753 72.1499 1.46421 72.0747 1.65868L71.223 3.81662L71.1843 3.84673L68.9437 4.01735C68.8114 4.02655 68.6821 4.06277 68.5634 4.12391C68.4446 4.18506 68.3387 4.26993 68.2516 4.37366C68.0905 4.56585 68.0013 4.81157 68 5.06621C67.9999 5.21948 68.0324 5.37087 68.0952 5.50965C68.1579 5.64842 68.2493 5.77117 68.3629 5.86917L70.0809 7.37471V7.40984L69.5583 9.69324C69.5393 9.77885 69.5296 9.86637 69.5292 9.9542C69.527 10.094 69.553 10.2327 69.6055 10.3615C69.658 10.4902 69.7359 10.6062 69.8341 10.7019C69.9963 10.8667 70.2074 10.9697 70.4332 10.9943C70.659 11.0189 70.8861 10.9636 71.0778 10.8374L73.0135 9.60792H73.0619L74.9493 10.8374C75.1414 10.963 75.3689 11.0174 75.5947 10.9919C75.8205 10.9664 76.0313 10.8624 76.193 10.6969C76.2912 10.6012 76.369 10.4852 76.4215 10.3564C76.474 10.2277 76.5 10.089 76.4978 9.94918C76.4977 9.86299 76.488 9.7771 76.4688 9.69324L75.9171 7.41485V7.37972L77.6351 5.87419C77.7392 5.78399 77.8249 5.67306 77.8871 5.54795C77.9493 5.42285 77.9867 5.2861 77.997 5.14577C78.0074 5.00544 77.9906 4.86438 77.9475 4.73091C77.9045 4.59744 77.8361 4.47426 77.7464 4.36865C77.6593 4.26492 77.5534 4.18004 77.4346 4.11889C77.3159 4.05775 77.1866 4.02153 77.0544 4.01234L74.8138 3.84171L74.775 3.8116L73.9233 1.65366L73.9524 1.65868Z" fill="#353277"/>
</g>
</svg>
