<svg width="22" height="22" viewBox="0 0 22 22" fill="none" xmlns="http://www.w3.org/2000/svg">
<path d="M7 15.5H6.25C6.25 15.7625 6.38724 16.0059 6.61184 16.1417C6.83645 16.2776 7.11574 16.2861 7.34822 16.1643L7 15.5ZM0.25 21C0.25 21.4142 0.585786 21.75 1 21.75C1.41421 21.75 1.75 21.4142 1.75 21H0.25ZM10.2428 13.8L10.591 14.4643L10.6189 14.4497L10.6455 14.4328L10.2428 13.8ZM11.7913 16.2554L12.1435 16.9176L12.1666 16.9053L12.1888 16.8914L11.7913 16.2554ZM7.76426 18.3973L7.41207 17.7352L7.38896 17.7475L7.36677 17.7613L7.76426 18.3973ZM4.96778 17.6936L5.61896 17.3215L4.96778 17.6936ZM4.65118 15.6279C4.44567 15.2683 3.98753 15.1433 3.6279 15.3488C3.26826 15.5543 3.14331 16.0125 3.34882 16.3721L4.65118 15.6279ZM12.2667 14.2778L12.9098 13.8919L12.2667 14.2778ZM7.75 19C7.75 18.5858 7.41421 18.25 7 18.25C6.58579 18.25 6.25 18.5858 6.25 19H7.75ZM6.25 21C6.25 21.4142 6.58579 21.75 7 21.75C7.41421 21.75 7.75 21.4142 7.75 21H6.25ZM11.8673 13.0973L11.4646 13.7301L12.7301 14.5354L13.1327 13.9027L11.8673 13.0973ZM16.6327 8.40266C16.8551 8.0532 16.7521 7.58963 16.4027 7.36725C16.0532 7.14487 15.5896 7.24789 15.3673 7.59734L16.6327 8.40266ZM4.25 3.5C4.25 3.91421 4.58579 4.25 5 4.25C5.41421 4.25 5.75 3.91421 5.75 3.5H4.25ZM18 10.25C17.5858 10.25 17.25 10.5858 17.25 11C17.25 11.4142 17.5858 11.75 18 11.75V10.25ZM9 4.25C8.58579 4.25 8.25 4.58579 8.25 5C8.25 5.41421 8.58579 5.75 9 5.75V4.25ZM17 5.75C17.4142 5.75 17.75 5.41421 17.75 5C17.75 4.58579 17.4142 4.25 17 4.25V5.75ZM9 7.25C8.58579 7.25 8.25 7.58579 8.25 8C8.25 8.41421 8.58579 8.75 9 8.75V7.25ZM13 8.75C13.4142 8.75 13.75 8.41421 13.75 8C13.75 7.58579 13.4142 7.25 13 7.25V8.75ZM5.25 8C5.25 8.69036 4.69036 9.25 4 9.25V10.75C5.51878 10.75 6.75 9.51878 6.75 8H5.25ZM4 9.25C3.30964 9.25 2.75 8.69036 2.75 8H1.25C1.25 9.51878 2.48122 10.75 4 10.75V9.25ZM2.75 8C2.75 7.30964 3.30964 6.75 4 6.75V5.25C2.48122 5.25 1.25 6.48122 1.25 8H2.75ZM4 6.75C4.69036 6.75 5.25 7.30964 5.25 8H6.75C6.75 6.48122 5.51878 5.25 4 5.25V6.75ZM7.75 15.5V15H6.25V15.5H7.75ZM0.25 15V21H1.75V15H0.25ZM7.34822 16.1643L10.591 14.4643L9.89458 13.1358L6.65178 14.8357L7.34822 16.1643ZM11.4391 15.5933L7.41207 17.7352L8.11646 19.0595L12.1435 16.9176L11.4391 15.5933ZM5.61896 17.3215L4.65118 15.6279L3.34882 16.3721L4.3166 18.0657L5.61896 17.3215ZM10.6455 14.4328C10.9784 14.2209 11.4205 14.3253 11.6236 14.6637L12.9098 13.8919C12.2726 12.8299 10.885 12.5024 9.84015 13.1673L10.6455 14.4328ZM7.36677 17.7613C6.76495 18.1375 5.97107 17.9377 5.61896 17.3215L4.3166 18.0657C5.09123 19.4213 6.83776 19.8608 8.16176 19.0333L7.36677 17.7613ZM1.75 15C1.75 13.7574 2.75736 12.75 4 12.75V11.25C1.92893 11.25 0.25 12.9289 0.25 15H1.75ZM11.6236 14.6637C11.8203 14.9916 11.7181 15.4167 11.3938 15.6194L12.1888 16.8914C13.2066 16.2553 13.5273 14.9211 12.9098 13.8919L11.6236 14.6637ZM7.75 15C7.75 12.9289 6.07107 11.25 4 11.25V12.75C5.24264 12.75 6.25 13.7574 6.25 15H7.75ZM6.25 19V21H7.75V19H6.25ZM13.1327 13.9027L16.6327 8.40266L15.3673 7.59734L11.8673 13.0973L13.1327 13.9027ZM5.75 3.5V3H4.25V3.5H5.75ZM7 1.75H19V0.25H7V1.75ZM20.25 3V9H21.75V3H20.25ZM19 10.25H18V11.75H19V10.25ZM20.25 9C20.25 9.69036 19.6904 10.25 19 10.25V11.75C20.5188 11.75 21.75 10.5188 21.75 9H20.25ZM19 1.75C19.6904 1.75 20.25 2.30964 20.25 3H21.75C21.75 1.48122 20.5188 0.25 19 0.25V1.75ZM5.75 3C5.75 2.30964 6.30964 1.75 7 1.75V0.25C5.48122 0.25 4.25 1.48122 4.25 3H5.75ZM9 5.75H17V4.25H9V5.75ZM9 8.75H13V7.25H9V8.75Z" fill="#28303F"/>
</svg>
