<svg width="16" height="16" viewBox="0 0 16 16" fill="none" xmlns="http://www.w3.org/2000/svg">
<path d="M8.5 5.9C8.5 5.62386 8.27614 5.4 8 5.4C7.72386 5.4 7.5 5.62386 7.5 5.9H8.5ZM8.38695 8.19347L8.61056 7.74626L8.38695 8.19347ZM9.17639 9.14721C9.42338 9.27071 9.72372 9.1706 9.84721 8.92361C9.97071 8.67662 9.8706 8.37628 9.62361 8.25279L9.17639 9.14721ZM7.5 5.9V7.56738H8.5V5.9H7.5ZM8.16334 8.64069L9.17639 9.14721L9.62361 8.25279L8.61056 7.74626L8.16334 8.64069ZM7.5 7.56738C7.5 8.0219 7.7568 8.43742 8.16334 8.64069L8.61056 7.74626C8.5428 7.71238 8.5 7.64313 8.5 7.56738H7.5ZM3.8 1.5H12.2V0.5H3.8V1.5ZM14.5 3.8V12.2H15.5V3.8H14.5ZM12.2 14.5H3.8V15.5H12.2V14.5ZM1.5 12.2V3.8H0.5V12.2H1.5ZM3.8 14.5C2.52974 14.5 1.5 13.4703 1.5 12.2H0.5C0.5 14.0225 1.97746 15.5 3.8 15.5V14.5ZM14.5 12.2C14.5 13.4703 13.4703 14.5 12.2 14.5V15.5C14.0225 15.5 15.5 14.0225 15.5 12.2H14.5ZM12.2 1.5C13.4703 1.5 14.5 2.52975 14.5 3.8H15.5C15.5 1.97746 14.0225 0.5 12.2 0.5V1.5ZM3.8 0.5C1.97746 0.5 0.5 1.97746 0.5 3.8H1.5C1.5 2.52974 2.52975 1.5 3.8 1.5V0.5ZM4.5 3.6H11.5V2.6H4.5V3.6ZM12.4 4.5V11.5H13.4V4.5H12.4ZM11.5 12.4H4.5V13.4H11.5V12.4ZM3.6 11.5V4.5H2.6V11.5H3.6ZM4.5 12.4C4.00294 12.4 3.6 11.9971 3.6 11.5H2.6C2.6 12.5493 3.45066 13.4 4.5 13.4V12.4ZM12.4 11.5C12.4 11.9971 11.9971 12.4 11.5 12.4V13.4C12.5493 13.4 13.4 12.5493 13.4 11.5H12.4ZM11.5 3.6C11.9971 3.6 12.4 4.00294 12.4 4.5H13.4C13.4 3.45066 12.5493 2.6 11.5 2.6V3.6ZM4.5 2.6C3.45066 2.6 2.6 3.45066 2.6 4.5H3.6C3.6 4.00294 4.00294 3.6 4.5 3.6V2.6Z" fill="#9E0000"/>
</svg>
