<svg width="17" height="17" viewBox="0 0 17 17" fill="none" xmlns="http://www.w3.org/2000/svg">
<path d="M1 9.25H0.25V10.75H1V9.25ZM16 10.75H16.75V9.25H16V10.75ZM6.25 15.25C5.83579 15.25 5.5 15.5858 5.5 16C5.5 16.4142 5.83579 16.75 6.25 16.75V15.25ZM10.75 16.75C11.1642 16.75 11.5 16.4142 11.5 16C11.5 15.5858 11.1642 15.25 10.75 15.25V16.75ZM9.25 13C9.25 12.5858 8.91421 12.25 8.5 12.25C8.08579 12.25 7.75 12.5858 7.75 13H9.25ZM3.25 1.75H13.75V0.25H3.25V1.75ZM15.25 3.25V10.75H16.75V3.25H15.25ZM13.75 12.25H3.25V13.75H13.75V12.25ZM1.75 10.75V3.25H0.25V10.75H1.75ZM3.25 12.25C2.42157 12.25 1.75 11.5784 1.75 10.75H0.25C0.25 12.4069 1.59315 13.75 3.25 13.75V12.25ZM15.25 10.75C15.25 11.5784 14.5784 12.25 13.75 12.25V13.75C15.4069 13.75 16.75 12.4069 16.75 10.75H15.25ZM13.75 1.75C14.5784 1.75 15.25 2.42157 15.25 3.25H16.75C16.75 1.59315 15.4069 0.25 13.75 0.25V1.75ZM3.25 0.25C1.59315 0.25 0.25 1.59315 0.25 3.25H1.75C1.75 2.42157 2.42157 1.75 3.25 1.75V0.25ZM1 10.75H16V9.25H1V10.75ZM6.25 16.75H8.5V15.25H6.25V16.75ZM8.5 16.75H10.75V15.25H8.5V16.75ZM9.25 16V13H7.75V16H9.25Z" fill="#777777"/>
</svg>
