<svg width="36" height="37" viewBox="0 0 36 37" fill="none" xmlns="http://www.w3.org/2000/svg">
<rect width="36" height="37" rx="18" fill="white"/>
<path d="M24.0365 15.7873C24.0426 15.9281 24.0426 16.0625 24.0426 16.2033C24.0488 20.4721 20.9125 25.4001 15.177 25.4001C13.4854 25.4001 11.8246 24.8945 10.3984 23.9473C10.6454 23.9793 10.8923 23.9921 11.1393 23.9921C12.5408 23.9921 13.9052 23.5057 15.0103 22.6033C13.6767 22.5777 12.5037 21.6753 12.0962 20.3569C12.5655 20.4529 13.047 20.4337 13.5039 20.2993C12.053 20.0049 11.0096 18.6801 11.0035 17.1377C11.0035 17.1249 11.0035 17.1121 11.0035 17.0993C11.4356 17.3489 11.9234 17.4897 12.4173 17.5025C11.0529 16.5553 10.6269 14.6673 11.4542 13.1889C13.0408 15.2113 15.3746 16.4337 17.8811 16.5681C17.628 15.4481 17.9737 14.2705 18.7825 13.4769C20.0358 12.2545 22.0114 12.3185 23.1968 13.6177C23.8945 13.4769 24.5674 13.2081 25.1786 12.8305C24.944 13.5793 24.4563 14.2129 23.808 14.6161C24.4254 14.5393 25.0304 14.3665 25.5984 14.1105C25.1786 14.7633 24.6477 15.3265 24.0365 15.7873Z" fill="black"/>
</svg>
