<svg width="43" height="42" viewBox="0 0 43 42" fill="none" xmlns="http://www.w3.org/2000/svg">
<path fill-rule="evenodd" clip-rule="evenodd" d="M42.3137 21.0035C42.3137 32.5988 32.9714 42.0066 21.441 42.0066C9.91762 42.0066 0.568237 32.606 0.568237 21.0035C0.568237 9.40826 9.91052 0.000488281 21.441 0.000488281C32.9643 0.000488281 42.3137 9.40111 42.3137 21.0035ZM18.2582 29.7751C26.3572 29.7751 30.7832 23.0266 30.7832 17.1718C30.7832 16.9788 30.7761 16.7858 30.769 16.5999C31.6287 15.978 32.3746 15.1916 32.9643 14.3052C32.1757 14.6554 31.3232 14.8985 30.4351 15.0057C31.3445 14.4553 32.0407 13.5903 32.3675 12.5537C31.515 13.0613 30.5772 13.433 29.5755 13.626C28.7727 12.7682 27.6289 12.2249 26.3572 12.2249C23.9275 12.2249 21.9525 14.2051 21.9525 16.6571C21.9525 17.0074 21.988 17.3434 22.0661 17.6651C18.4074 17.4792 15.1607 15.7206 12.9938 13.0398C12.6173 13.6975 12.3971 14.4553 12.3971 15.2631C12.3971 16.8001 13.1714 18.1583 14.3579 18.9519C13.6332 18.9304 12.9583 18.7302 12.3615 18.3942C12.3615 18.4157 12.3615 18.43 12.3615 18.4514C12.3615 20.5961 13.8819 22.3904 15.8924 22.7907C15.523 22.8908 15.1323 22.948 14.7344 22.948C14.4502 22.948 14.1732 22.9194 13.9103 22.8694C14.4715 24.628 16.0985 25.9076 18.0237 25.9433C16.5176 27.13 14.6207 27.8378 12.5534 27.8378C12.1981 27.8378 11.85 27.8163 11.5019 27.7734C13.4485 29.0316 15.7645 29.7608 18.2511 29.7608L18.2582 29.7751Z" fill="white"/>
</svg>
