<svg width="42" height="42" viewBox="0 0 42 42" fill="none" xmlns="http://www.w3.org/2000/svg">
<path fill-rule="evenodd" clip-rule="evenodd" d="M41.8615 21.0035C41.8615 32.5988 32.5192 42.0066 20.9887 42.0066C9.46537 42.0066 0.115967 32.606 0.115967 21.0035C0.115967 9.40826 9.45826 0.000488281 20.9887 0.000488281C32.5121 0.000488281 41.8615 9.40111 41.8615 21.0035ZM26.5586 23.1696C26.2886 23.0338 24.9672 22.3833 24.7185 22.2903C24.4699 22.1974 24.2923 22.1545 24.1147 22.4262C23.937 22.6978 23.4184 23.3054 23.2621 23.4842C23.1058 23.6629 22.9495 23.6843 22.6796 23.5485C22.4096 23.4127 21.5429 23.1267 20.5198 22.2045C19.7241 21.4897 19.1842 20.6032 19.0208 20.3316C18.8645 20.0599 19.0066 19.9169 19.1416 19.7811C19.2623 19.6596 19.4115 19.4666 19.5465 19.3093C19.6815 19.152 19.7241 19.0376 19.8165 18.8589C19.9088 18.6802 19.8591 18.5229 19.7952 18.3871C19.7312 18.2513 19.1913 16.9216 18.964 16.3783C18.7437 15.8493 18.5235 15.9208 18.3601 15.9136C18.2038 15.9065 18.0262 15.9065 17.8486 15.9065C17.671 15.9065 17.3797 15.9708 17.131 16.2425C16.8824 16.5141 16.1932 17.1647 16.1932 18.5015C16.1932 19.8312 17.1594 21.1179 17.2873 21.2966C17.4223 21.4754 19.1842 24.2062 21.8768 25.3786C22.5162 25.6574 23.0206 25.8218 23.4113 25.9505C24.0578 26.1578 24.6404 26.1292 25.1022 26.0577C25.6208 25.9791 26.6936 25.4072 26.9138 24.7709C27.1411 24.1419 27.1411 23.5985 27.0701 23.4842C26.999 23.3698 26.8214 23.3054 26.5515 23.1696H26.5586ZM21.6565 29.9109H21.6494C20.0438 29.9109 18.4738 29.4748 17.0955 28.6599L16.7687 28.4669L13.387 29.3604L14.2893 26.0434L14.0761 25.7003C13.181 24.2705 12.705 22.612 12.705 20.9106C12.705 15.9494 16.719 11.9175 21.6494 11.9175C24.0365 11.9175 26.2815 12.854 27.9723 14.5554C29.6632 16.2568 30.5868 18.5158 30.5868 20.9178C30.5868 25.879 26.5728 29.9109 21.6423 29.9109H21.6565ZM29.2654 13.2614C27.2335 11.2169 24.5338 10.0874 21.6565 10.0874C15.7243 10.0874 10.9005 14.9414 10.8934 20.9106C10.8934 22.8193 11.3907 24.678 12.3284 26.3222L10.801 31.934L16.5058 30.4256C18.0759 31.2906 19.8449 31.741 21.6494 31.741H21.6565C27.5887 31.741 32.4126 26.887 32.4197 20.9178C32.4197 18.0225 31.3043 15.306 29.2725 13.2614H29.2654Z" fill="white"/>
</svg>
