<svg width="42" height="42" viewBox="0 0 42 42" fill="none" xmlns="http://www.w3.org/2000/svg">
<path fill-rule="evenodd" clip-rule="evenodd" d="M42 21.0035C42 32.5988 32.6577 42.0066 21.1273 42.0066C9.60392 42.0066 0.254517 32.606 0.254517 21.0035C0.254517 9.40826 9.59682 0.000488281 21.1273 0.000488281C32.6506 0.000488281 42 9.40111 42 21.0035ZM18.7686 24.5636V17.4435L24.8997 21.0035L18.7686 24.5636ZM32.4304 15.2917C32.1604 14.2694 31.3576 13.4688 30.3488 13.1971C28.5088 12.7038 21.1344 12.7038 21.1344 12.7038C21.1344 12.7038 13.76 12.7038 11.92 13.1971C10.904 13.4688 10.1083 14.2766 9.83127 15.2988C9.34106 17.1504 9.34106 21.0107 9.34106 21.0107C9.34106 21.0107 9.34106 24.871 9.83127 26.7226C10.1012 27.7448 10.904 28.5455 11.92 28.8243C13.76 29.3176 21.1344 29.3176 21.1344 29.3176C21.1344 29.3176 28.5088 29.3176 30.3488 28.8243C31.3647 28.5526 32.1604 27.7448 32.4304 26.7226C32.9206 24.871 32.9206 21.0107 32.9206 21.0107C32.9206 21.0107 32.9206 17.1504 32.4304 15.2988V15.2917Z" fill="white"/>
</svg>
