<svg width="37" height="37" viewBox="0 0 37 37" fill="none" xmlns="http://www.w3.org/2000/svg">
<rect width="37" height="37" rx="18.5" fill="white"/>
<path d="M27.6292 14.6722C27.4217 13.9012 26.8138 13.2933 26.0428 13.0857C24.6342 12.7002 19 12.7002 19 12.7002C19 12.7002 13.3657 12.7002 11.9572 13.0709C11.201 13.2784 10.5783 13.9012 10.3707 14.6722C10 16.0807 10 19.0017 10 19.0017C10 19.0017 10 21.9374 10.3707 23.3311C10.5783 24.1021 11.1862 24.71 11.9572 24.9176C13.3805 25.3031 19 25.3031 19 25.3031C19 25.3031 24.6342 25.3031 26.0428 24.9324C26.8138 24.7249 27.4217 24.117 27.6292 23.3459C27.9999 21.9374 27.9999 19.0165 27.9999 19.0165C27.9999 19.0165 28.0147 16.0807 27.6292 14.6722Z" fill="black"/>
<path d="M17.2031 21.7002L21.8884 19.0017L17.2031 16.3032V21.7002Z" fill="white"/>
</svg>
